<svg width="180" height="180" viewBox="0 0 180 180" fill="none" xmlns="http://www.w3.org/2000/svg">
<rect width="180" height="180" rx="36" fill="#FFFFFF"/>
<path d="M69 18C43 18 22 39 22 65c0 38 47 91 47 91s47-53 47-91c0-26-21-47-47-47z" fill="#0B82C8"/>
<path d="M105 20c24 8 40 30 40 55 0 31-23 54-44 70 11-24 18-49 18-70 0-22-5-39-14-55z" fill="#FFB000"/>
<circle cx="69" cy="64" r="27" fill="#FFFFFF"/>
<circle cx="59" cy="61" r="5" fill="#005B8F"/>
<circle cx="79" cy="61" r="5" fill="#005B8F"/>
<path d="M58 76c7 8 16 8 23 0" stroke="#005B8F" stroke-width="6" stroke-linecap="round"/>
<path d="M112 130h15l5 14h-13l-1-4h-12l-2 4H92l14-36h13l14 36h-14l-7-14zm3-10-4 11h8l-4-11z" fill="#005B8F"/>
</svg>